<svg xmlns="http://www.w3.org/2000/svg" width="18" height="19.999" viewBox="0 0 18 19.999">
  <path id="envelope-open" d="M20.21,8.82h0L14,2.78a2.83,2.83,0,0,0-3.9,0l-6.21,6h0A2.6,2.6,0,0,0,3,10.71v8.58A2.75,2.75,0,0,0,5.78,22H18.22A2.75,2.75,0,0,0,21,19.29V10.71a2.67,2.67,0,0,0-.79-1.89Zm-8.77-4.6a.83.83,0,0,1,1.12,0L18,9.5l-5.47,5.28a.83.83,0,0,1-1.12,0L6,9.5ZM19,19.29a.76.76,0,0,1-.78.71H5.78A.76.76,0,0,1,5,19.29V11.35l4.05,3.9-1.66,1.6A1.008,1.008,0,0,0,8.8,18.29l1.77-1.7a2.8,2.8,0,0,0,2.92,0l1.77,1.7a1.008,1.008,0,0,0,1.41-1.44L15,15.25l4-3.9Z" transform="translate(-3 -2.001)"/>
</svg>
