<svg xmlns="http://www.w3.org/2000/svg" width="18" height="19" viewBox="0 0 18 19">
  <path id="shopping-cart" d="M8.5,19A1.5,1.5,0,1,0,10,20.5,1.5,1.5,0,0,0,8.5,19ZM19,16H7a1,1,0,0,1,0-2h8.491a3.013,3.013,0,0,0,2.885-2.176l1.585-5.549A1,1,0,0,0,19,5H6.739A3.007,3.007,0,0,0,3.921,3H3A1,1,0,0,0,3,5h.921a1,1,0,0,1,.961.725l.156.545v.005l1.641,5.742A3,3,0,0,0,7,18H19a1,1,0,0,0,0-2ZM17.674,7l-1.221,4.274a1,1,0,0,1-.962.726H8.754L8.5,11.108,7.326,7ZM16.5,19A1.5,1.5,0,1,0,18,20.5,1.5,1.5,0,0,0,16.5,19Z" transform="translate(-2 -3)"/>
</svg>
